<svg width="14" height="12" viewBox="0 0 14 12" fill="none" xmlns="http://www.w3.org/2000/svg">
<path d="M0 1C0 0.585786 0.335786 0.25 0.75 0.25H13.25C13.6642 0.25 14 0.585786 14 1V1C14 1.41421 13.6642 1.75 13.25 1.75H0.75C0.335786 1.75 0 1.41421 0 1V1Z" fill="#D9D9D9"/>
<path d="M0 6C0 5.58579 0.335786 5.25 0.75 5.25H13.25C13.6642 5.25 14 5.58579 14 6V6C14 6.41421 13.6642 6.75 13.25 6.75H0.75C0.335786 6.75 0 6.41421 0 6V6Z" fill="#D9D9D9"/>
<path d="M0 11C0 10.5858 0.335786 10.25 0.75 10.25H13.25C13.6642 10.25 14 10.5858 14 11V11C14 11.4142 13.6642 11.75 13.25 11.75H0.75C0.335786 11.75 0 11.4142 0 11V11Z" fill="#D9D9D9"/>
</svg>
