<svg width="164" height="132" viewBox="0 0 164 132" fill="none" xmlns="http://www.w3.org/2000/svg">
<path d="M83.5722 129.86L52.0522 66.38C52.0179 66.3117 52 66.2364 52 66.16C52 66.0836 52.0179 66.0083 52.0522 65.94L83.6322 2.27C83.6731 2.18851 83.736 2.12006 83.8137 2.07236C83.8915 2.02466 83.981 1.9996 84.0722 2L111.682 2.04C111.769 2.04026 111.853 2.06334 111.928 2.10691C112.003 2.15049 112.064 2.21301 112.107 2.28814C112.15 2.36326 112.172 2.44833 112.171 2.53471C112.17 2.62109 112.146 2.70571 112.102 2.78L74.0522 65.86C74.0073 65.9357 73.9836 66.022 73.9836 66.11C73.9836 66.198 74.0073 66.2843 74.0522 66.36L112.132 129.44C112.179 129.515 112.205 129.6 112.207 129.688C112.209 129.776 112.187 129.863 112.144 129.939C112.101 130.016 112.039 130.08 111.963 130.124C111.887 130.168 111.8 130.191 111.712 130.19L84.0022 130.13C83.9127 130.129 83.8253 130.103 83.7495 130.055C83.6737 130.007 83.6123 129.94 83.5722 129.86Z" fill="white"/>
</svg>
