<svg width="164" height="132" viewBox="0 0 164 132" fill="none" xmlns="http://www.w3.org/2000/svg">
<path d="M80.345 2.33735L112.153 65.6735C112.188 65.7416 112.206 65.8169 112.206 65.8933C112.207 65.9697 112.189 66.0451 112.155 66.1135L80.8646 129.926C80.8241 130.008 80.7615 130.077 80.684 130.125C80.6065 130.173 80.5171 130.198 80.4259 130.198L52.816 130.284C52.7296 130.284 52.6447 130.261 52.5699 130.218C52.4951 130.175 52.4331 130.112 52.3901 130.038C52.3471 129.963 52.3247 129.878 52.3252 129.791C52.3256 129.705 52.3489 129.62 52.3926 129.546L90.1557 66.2934C90.2002 66.2176 90.2235 66.1311 90.2231 66.0431C90.2227 65.9552 90.1986 65.8689 90.1534 65.7935L51.7872 2.88709C51.7402 2.8128 51.7141 2.72726 51.7116 2.6394C51.709 2.55154 51.7301 2.4646 51.7727 2.38771C51.8153 2.31083 51.8778 2.24682 51.9537 2.20239C52.0295 2.15796 52.1159 2.13474 52.2038 2.13518L79.9138 2.06931C80.0033 2.07034 80.0908 2.09586 80.1668 2.14311C80.2428 2.19037 80.3045 2.25755 80.345 2.33735Z" fill="white"/>
</svg>
