<svg width="584" height="195" viewBox="0 0 584 195" fill="none" xmlns="http://www.w3.org/2000/svg">
<circle cx="97.5" cy="97.5" r="97.5" fill="#D9D9D9"/>
<path d="M33.9255 91.7181C33.7408 91.4111 33.6683 91.0937 33.7078 90.7659C34.882 80.8172 38.0811 71.2641 43.3054 62.1063C43.3581 62.0231 43.3252 61.9815 43.2064 61.9815H42.7315C42.6842 61.9814 42.6377 61.9924 42.5974 62.0131C42.557 62.0339 42.5246 62.0635 42.5039 62.0985C38.8628 68.3997 35.6207 75.255 32.7778 82.6644C32.1313 84.3607 31.696 85.9659 31.4717 87.48" stroke="#98821C" stroke-width="1.8"/>
<path d="M159.317 115.078C159.515 115.114 159.643 115.203 159.703 115.343" stroke="#411E0B" stroke-width="1.8"/>
<path d="M71.9298 167.308C69.753 165.139 67.474 163.081 65.0928 161.135C61.8606 158.486 59.5882 156.436 58.2755 154.984C55.5447 151.961 53.1898 148.946 51.211 145.939C50.3667 144.648 49.618 143.199 48.9649 141.591C48.3581 140.093 47.7578 138.597 47.1642 137.103C46.2407 134.778 45.6272 131.042 45.3238 125.896" stroke="#22A4C3" stroke-opacity="0.878" stroke-width="1.8"/>
<path d="M99.3174 81.8761C99.5944 84.8159 100.986 87.2589 103.493 89.2049C104.759 90.1883 106.263 91.4917 107.955 91.9678C112.164 93.1542 116.026 92.6364 119.541 90.4146C121.016 89.4781 121.669 88.3542 122.787 87.2068C126.082 83.8273 126.25 77.7317 125.33 73.6185C124.828 71.3707 123.453 69.1229 121.204 66.8751C118.862 64.5493 115.966 63.3942 112.516 63.4098C107.46 63.441 105.254 65.1424 102.444 67.9132C99.0106 71.2849 98.3576 76.1473 98.9315 80.6742C98.9513 80.8563 99.0074 81.0332 99.0997 81.2049C99.2184 81.4182 99.291 81.642 99.3174 81.8761Z" stroke="#933734" stroke-width="1.8"/>
<path d="M33.9255 91.718C33.7408 91.411 33.6683 91.0936 33.7079 90.7658C34.882 80.8172 38.0812 71.2641 43.3054 62.1063C43.3582 62.0231 43.3252 61.9815 43.2064 61.9815H42.7315C42.6842 61.9814 42.6377 61.9924 42.5974 62.0131C42.557 62.0339 42.5246 62.0635 42.5039 62.0985C38.8628 68.3997 35.6208 75.255 32.7778 82.6644C32.1314 84.3606 31.696 85.9658 31.4717 87.48C25.7066 74.9402 26.9929 63.1574 35.3305 52.1317C36.5376 50.5395 39.2916 47.9561 43.5923 44.3815C46.4815 41.9776 49.5652 39.9119 52.8436 38.1844C56.8739 36.0562 60.825 34.1545 64.697 32.479C67.8302 31.121 70.9733 30.0023 74.1263 29.1229C77.4443 28.1967 80.8248 27.1951 84.2681 26.118C85.7192 25.6654 85.9699 25.9255 85.02 26.8985C83.4369 28.5141 81.7054 30.0439 80.5082 31.839C76.0261 38.5824 72.6224 45.318 70.1785 52.4907C67.7775 59.5515 65.6963 66.6852 63.9351 73.8917C63.0051 77.7317 61.0856 81.1268 59.176 84.678C57.0388 88.6585 53.2294 91.8273 48.1635 93.4039C42.3061 95.2302 38.7639 93.4195 33.9255 91.718Z" fill="#B7D22B"/>
<path d="M119.561 104.143C118.776 104.757 117.787 104.994 116.593 104.854C116.158 104.802 115.851 104.934 115.673 105.252C113.852 108.483 113.536 111.894 112.962 115.351C112.777 116.486 112.253 117.448 111.389 118.239C111.204 118.41 110.971 118.544 110.708 118.631C110.446 118.718 110.161 118.756 109.876 118.742C109.592 118.728 109.315 118.661 109.067 118.548C108.82 118.435 108.608 118.279 108.45 118.091C107.708 117.209 107.223 116.249 107.243 115.164C107.302 111.862 107.441 107.804 106.026 104.674C105.911 104.424 105.677 104.219 105.373 104.104L100.079 102.06C99.3722 101.787 98.575 101.695 97.7996 101.797C97.0241 101.899 96.3093 102.19 95.7554 102.629L89.3736 107.718C87.7179 109.029 86.4547 108.826 85.584 107.109C85.5379 107.016 85.4917 106.922 85.4455 106.828C84.7001 105.2 84.9574 103.678 86.2173 102.262C88.206 100.015 92.5892 94.9024 90.8874 92.1473C90.1025 90.8673 89.489 89.5275 89.0471 88.1278C88.1863 85.4039 82.586 85.2478 79.776 85.279C73.8196 85.3571 73.5426 79.2927 79.034 78.7229C81.3558 78.4836 83.5821 77.9789 85.7127 77.2088C86.2253 77.0231 86.6635 76.7291 86.9794 76.3588C87.2952 75.9885 87.4765 75.5563 87.5035 75.1093C87.5695 73.9541 87.7377 72.7808 88.0082 71.5893C88.6216 68.9356 85.683 65.3688 83.6843 63.558C82.2793 62.2832 81.3097 60.9954 80.7754 59.6946C79.7068 57.1034 83.0907 54.5824 85.7621 56.838C87.6948 58.4667 89.9244 59.7883 92.4507 60.8029C92.6374 60.8767 92.8518 60.8944 93.0539 60.8528C93.2559 60.8111 93.4319 60.713 93.549 60.5766L96.8141 56.8458C97.045 56.5857 97.1308 56.2995 97.0714 55.9873C96.5173 53.0995 95.762 50.1727 94.8056 47.2068C94.2911 45.6146 94.6011 44.1655 95.7357 42.8595C95.8196 42.7635 95.9279 42.6822 96.0538 42.6204C96.1798 42.5587 96.3207 42.5178 96.4678 42.5005C99.2185 42.1805 100.307 44.7561 101.049 46.3873C101.959 48.3932 103.532 49.8995 104.71 51.7649C104.811 51.9238 104.978 52.0506 105.183 52.1244C105.388 52.1982 105.619 52.2146 105.838 52.1707L110.379 51.2185C110.755 51.1405 111.039 50.9714 111.23 50.7112C113.334 47.891 114.591 44.8628 115 41.6263C115.109 40.7756 115.702 39.878 116.128 39.0741C116.751 37.8878 118.799 37.5912 119.908 38.5746C120.937 39.4956 121.184 40.9551 121.075 42.1415C120.749 45.3727 120.185 49.6107 121.303 52.7561C121.395 53.011 121.586 53.2088 121.877 53.3493L124.805 54.7151C124.955 54.7846 125.123 54.8238 125.294 54.8293C125.465 54.8347 125.634 54.8062 125.785 54.7463C128.219 53.7837 130.251 52.4179 131.88 50.6488C133.176 49.2439 136.392 46.3561 138.311 48.9317C139.291 50.2351 139.103 52.0536 138.014 53.3102C136.042 55.5684 134.337 58.2793 132.899 61.4429C132.186 63.0039 133.997 64.7834 134.551 66.2819C134.685 66.6341 134.978 66.9341 135.372 67.1249C138.024 68.3815 141.477 68.3268 144.366 67.5619C145.33 67.307 146.243 67.3382 147.107 67.6556C150.808 69.0215 149.066 73.0956 145.92 74.0322C143.954 74.6254 142.058 75.3096 140.231 76.0849C139.033 76.6 138.539 77.3571 137.609 78.0673C137.354 78.253 137.195 78.5089 137.163 78.7854L136.53 83.7727C136.491 84.0693 136.566 84.345 136.758 84.6C138.644 87.1444 141.012 89.0566 143.862 90.3366C146.223 91.398 147.094 92.972 146.474 95.0585C146.448 95.147 146.415 95.2354 146.375 95.3239C145.379 97.4 143.73 97.8006 141.428 96.5258C138.994 95.1782 136.233 94.455 133.146 94.3561C132.824 94.3441 132.504 94.408 132.226 94.5399C131.948 94.6717 131.724 94.8657 131.583 95.0976C130.801 96.401 129.307 97.7278 129.307 99.2263C129.307 102.77 130.989 106.149 132.345 109.498C132.929 110.949 132.889 113.837 130.148 113.985C128.654 114.063 127.793 113.314 127.279 112.323C125.696 109.284 123.39 106.56 120.363 104.151C120.257 104.068 120.114 104.02 119.964 104.019C119.814 104.017 119.67 104.062 119.561 104.143ZM99.3174 81.8761C99.5945 84.8159 100.986 87.2589 103.493 89.2049C104.759 90.1883 106.263 91.4917 107.955 91.9678C112.164 93.1541 116.026 92.6364 119.541 90.4146C121.016 89.478 121.669 88.3541 122.787 87.2068C126.082 83.8273 126.25 77.7317 125.33 73.6185C124.828 71.3707 123.453 69.1229 121.204 66.8751C118.862 64.5493 115.966 63.3941 112.516 63.4097C107.46 63.441 105.254 65.1424 102.444 67.9132C99.0107 71.2849 98.3577 76.1473 98.9315 80.6741C98.9513 80.8563 99.0074 81.0332 99.0997 81.2049C99.2185 81.4182 99.291 81.6419 99.3174 81.8761Z" fill="#66554B"/>
<path d="M33.9255 91.7181C33.7474 91.6972 33.6452 91.7701 33.6188 91.9366C31.5806 107.125 33.5792 121.837 39.6148 136.073C40.4789 138.113 41.4782 140.108 42.6128 142.06C44.0475 144.518 45.0864 147.016 46.6596 149.404C49.2057 153.265 52.8271 157.331 57.5236 161.603C63.9615 167.457 71.4714 171.453 80.0531 173.591C88.4567 175.688 96.768 175.428 104.987 172.811C110.033 171.198 114.462 169.137 118.275 166.629C132.434 157.302 141.19 142.177 146.019 127.597C146.586 125.87 147.101 123.271 147.562 119.8C147.609 119.483 147.826 119.285 148.215 119.207C151.408 118.546 154.442 117.635 157.318 116.475C157.608 116.355 157.852 116.192 158.05 115.983C158.387 115.614 158.809 115.312 159.317 115.078C159.515 115.114 159.643 115.203 159.703 115.343C159.505 119.007 159.096 122.128 158.476 124.709C155.89 135.449 151.553 145.343 145.465 154.391C142.767 158.403 139.047 162.461 134.304 166.567C128.862 171.281 123.328 174.822 117.701 177.189C115.353 178.178 112.223 179.18 108.311 180.194C104.796 181.11 101.735 181.638 99.1294 181.779C93.826 182.075 87.7311 182.091 82.5662 180.53C79.1131 179.484 75.1356 178.922 71.8704 177.408C62.761 173.183 54.9247 167.467 48.3614 160.26C46.9234 158.684 45.7064 157.076 44.7104 155.437C43.3549 153.22 41.564 151.199 40.2975 148.982C37.6986 144.461 35.6604 140.288 34.1828 136.463C33.0746 133.602 31.9368 129.348 30.7692 123.702C28.6584 113.551 28.5925 103.295 30.5713 92.9356C30.7363 92.0563 30.9407 91.1535 31.1848 90.2273C31.4618 89.1607 31.5575 88.2449 31.4717 87.48C31.696 85.9659 32.1314 84.3607 32.7778 82.6644C35.6208 75.255 38.8628 68.3997 42.504 62.0985C42.5246 62.0635 42.5571 62.0339 42.5974 62.0131C42.6377 61.9924 42.6842 61.9814 42.7315 61.9815H43.2065C43.3252 61.9815 43.3582 62.0231 43.3054 62.1063C38.0812 71.2641 34.882 80.8172 33.7079 90.7659C33.6683 91.0937 33.7408 91.4111 33.9255 91.7181Z" fill="#79320C"/>
<path d="M99.0997 81.2049C99.0074 81.0332 98.9513 80.8562 98.9315 80.6741C98.3577 76.1473 99.0107 71.2849 102.444 67.9132C105.254 65.1424 107.46 63.441 112.516 63.4097C115.966 63.3941 118.862 64.5493 121.204 66.8751C123.453 69.1229 124.828 71.3707 125.33 73.6185C126.25 77.7317 126.082 83.8273 122.787 87.2068C121.669 88.3541 121.016 89.478 119.541 90.4146C116.026 92.6364 112.164 93.1541 107.955 91.9678C106.263 91.4917 104.759 90.1883 103.493 89.2049C100.986 87.2588 99.5944 84.8159 99.3174 81.8761C99.291 81.6419 99.2185 81.4182 99.0997 81.2049ZM112.309 89.041C114.983 89.041 117.547 87.8791 119.438 85.8108C121.329 83.7426 122.391 80.9376 122.391 78.0127C122.391 75.0878 121.329 72.2827 119.438 70.2145C117.547 68.1463 114.983 66.9844 112.309 66.9844C109.635 66.9844 107.07 68.1463 105.179 70.2145C103.289 72.2827 102.226 75.0878 102.226 78.0127C102.226 80.9376 103.289 83.7426 105.179 85.8108C107.07 87.8791 109.635 89.041 112.309 89.041Z" fill="#BF181D"/>
<path d="M71.9298 167.308C69.753 165.139 67.474 163.081 65.0928 161.135C61.8606 158.486 59.5882 156.436 58.2756 154.984C55.5447 151.961 53.1899 148.946 51.211 145.939C50.3667 144.648 49.618 143.199 48.965 141.591C48.3581 140.093 47.7579 138.597 47.1642 137.103C46.2407 134.778 45.6273 131.042 45.3239 125.896C48.3515 124.98 51.0032 124.228 53.2789 123.64C62.4939 121.257 71.3065 121.668 79.7167 124.873C82.6355 125.981 85.0695 127.652 87.6124 129.361C88.6348 130.043 89.6011 130.771 90.5114 131.546C99.5615 139.258 111.072 142.026 125.043 139.851C129.396 139.172 133.562 137.4 137.411 135.745C138.229 135.392 138.499 135.568 138.222 136.276C136.471 140.678 135.145 145.158 132.365 149.287C129.95 152.877 126.903 157.139 123.074 159.847C121.382 161.041 120.096 162.376 118.265 163.507C104.344 172.093 87.9983 173.974 71.9298 167.308Z" fill="#00C0ED"/>
<path d="M45.3239 125.896C45.6273 131.042 46.2407 134.778 47.1642 137.103C47.7579 138.597 48.3581 140.093 48.965 141.591C49.618 143.199 50.3667 144.648 51.211 145.939C53.1899 148.946 55.5447 151.961 58.2756 154.984C59.5882 156.436 61.8606 158.486 65.0928 161.135C67.4741 163.081 69.7531 165.139 71.9298 167.308C65.5381 164.405 60.0368 160.482 55.426 155.539C50.6042 150.377 47.3687 144.981 45.7196 139.351C44.5818 135.488 44.4532 131.492 43.5528 127.644C43.4868 127.384 43.5495 127.142 43.7408 126.918C44.2091 126.372 44.7368 126.031 45.3239 125.896Z" fill="#507E8C" fill-opacity="0.753"/>
<path d="M132.137 129.509C133.469 129.051 134.733 128.406 135.927 127.574C136.428 127.23 136.715 127.319 136.787 127.839C136.956 128.971 137.46 131 135.976 131.671C135.64 131.822 135.316 131.994 135.006 132.186C130.877 134.731 126.065 136.333 120.571 136.994C111.389 138.102 99.8121 133.302 93.1433 128.752C92.7475 128.482 92.7871 128.437 93.2621 128.62C95.0826 129.332 96.9527 130.069 98.8722 130.828C101.069 131.697 103.008 132.293 104.69 132.616C110.541 133.74 116.613 133.732 122.906 132.592C126.299 131.983 129.01 130.579 132.137 129.509Z" fill="#00C0ED"/>
<path d="M152.754 56.0901L151.389 60.2891C151.348 60.4181 151.263 60.5359 151.144 60.6298C151.024 60.7237 150.875 60.7902 150.711 60.8223C150.548 60.8543 150.376 60.8507 150.215 60.8118C150.054 60.7729 149.909 60.7001 149.796 60.6013C147.401 58.5408 151.913 54.8882 146.659 52.8901C146.33 52.7652 145.996 52.76 145.66 52.8745C144.466 53.2908 143.398 53.9074 142.454 54.7243C142.206 54.9373 141.863 55.0656 141.497 55.0816C141.131 55.0977 140.771 55.0002 140.495 54.8101C140.376 54.7269 140.294 54.6228 140.248 54.4979C139.997 53.7695 140.122 53.1008 140.624 52.4921C141.264 51.7272 141.943 50.9753 142.662 50.2365C143.295 49.5913 143.513 48.8316 143.315 47.9574C142.807 45.7617 141.409 44.6534 139.12 44.6326C137.939 44.6221 137.171 44.1721 136.814 43.2823C136.788 43.2095 136.775 43.134 136.775 43.056C136.762 42.2078 137.289 41.7213 138.358 41.5965L141.683 41.2218C142.091 41.175 142.362 40.9955 142.494 40.6833C143.711 37.9048 142.504 36.3828 140.752 34.1974C140.264 33.5887 140.162 33.0059 140.446 32.4491C140.524 32.2935 140.65 32.1562 140.814 32.05C140.978 31.9438 141.174 31.8721 141.384 31.8418C141.593 31.8114 141.809 31.8232 142.012 31.8762C142.215 31.9292 142.398 32.0216 142.543 32.1447L145.126 34.3769C145.39 34.6059 145.68 34.6345 145.996 34.4628C148.678 33.0345 147.609 30.3184 147.204 28.2501C147.065 27.5321 147.401 27.0638 148.213 26.8452C148.382 26.7994 148.568 26.8072 148.73 26.8668C148.892 26.9265 149.019 27.0334 149.083 27.1652L150.855 30.8179C151.006 31.1197 151.283 31.2914 151.686 31.333C153.061 31.4891 154.367 31.1613 154.882 29.9984C155.449 28.708 156.158 27.4124 157.009 26.1116C157.042 26.0627 157.087 26.0199 157.142 25.9858C157.197 25.9517 157.261 25.9272 157.328 25.9139C157.396 25.9006 157.465 25.8989 157.533 25.9087C157.601 25.9186 157.665 25.9398 157.721 25.9711C158.671 26.5018 159.037 27.1626 158.82 27.9535C158.523 29.0774 158.328 30.2794 158.236 31.5594C158.157 32.6052 159.186 33.7057 160.571 33.495C161.837 33.2999 163.074 31.9808 164.073 31.3408C164.25 31.2301 164.459 31.1572 164.682 31.1293C164.904 31.1013 165.132 31.1192 165.343 31.1813C165.554 31.2433 165.742 31.3474 165.887 31.4834C166.032 31.6194 166.13 31.7827 166.171 31.9574C166.389 32.9148 166.006 33.7578 165.023 34.4862C162.682 36.2033 162.309 37.9282 163.905 39.6608C164.116 39.8898 164.4 40.0147 164.756 40.0355L168.397 40.2462C169.136 40.293 169.558 40.6026 169.664 41.175L169.703 41.4326C169.888 42.4004 169.377 42.9987 168.17 43.2277L165.211 43.7896C164.809 43.8677 164.515 44.055 164.331 44.3516C162.913 46.6254 163.519 48.4934 166.151 49.9555C167.154 50.5122 167.586 51.2719 167.447 52.2345C167.421 52.4114 167.339 52.5675 167.2 52.7028C166.567 53.3012 165.871 53.3532 165.112 52.8589C164.347 52.3646 163.506 51.9717 162.589 51.6804C162.289 51.5841 161.962 51.5489 161.64 51.5779C161.317 51.607 161.009 51.6993 160.743 51.8466C160.477 51.9938 160.261 52.1914 160.115 52.4213C159.969 52.6512 159.898 52.9063 159.908 53.1633C159.987 55.0573 160.284 56.881 160.798 58.6345C160.847 58.8056 160.828 58.9845 160.743 59.1465C160.658 59.3086 160.511 59.446 160.323 59.5399C159.802 59.8 159.291 59.813 158.79 59.5789C158.48 59.4332 158.252 59.2251 158.107 58.9545C157.52 57.867 156.926 56.8238 156.326 55.8248C156.158 55.5458 155.885 55.3144 155.545 55.1618C155.204 55.0093 154.812 54.943 154.423 54.972C154.033 55.0009 153.664 55.1237 153.365 55.3238C153.067 55.5238 152.853 55.7913 152.754 56.0901ZM153.156 49.6745C153.931 49.6756 154.7 49.5089 155.417 49.1839C156.134 48.859 156.787 48.3821 157.337 47.7806C157.886 47.1791 158.323 46.4647 158.622 45.6782C158.92 44.8917 159.075 44.0485 159.077 43.1968C159.079 42.345 158.928 41.5014 158.633 40.7141C158.338 39.9268 157.904 39.2112 157.357 38.6082C156.81 38.0052 156.16 37.5265 155.444 37.1996C154.728 36.8727 153.96 36.7039 153.184 36.7028C152.409 36.7017 151.64 36.8684 150.923 37.1934C150.205 37.5184 149.553 37.9952 149.003 38.5967C148.453 39.1982 148.017 39.9126 147.718 40.6991C147.419 41.4856 147.265 42.3288 147.263 43.1805C147.261 44.0323 147.412 44.8759 147.707 45.6632C148.002 46.4505 148.436 47.1661 148.983 47.7691C149.53 48.3721 150.18 48.8508 150.896 49.1777C151.612 49.5046 152.38 49.6734 153.156 49.6745Z" fill="#BF181D"/>
</svg>
