<svg width="195" height="195" viewBox="0 0 195 195" fill="none" xmlns="http://www.w3.org/2000/svg">
<g clip-path="url(#clip0_0_1)">
<path d="M97.5 195C151.348 195 195 151.348 195 97.5C195 43.6522 151.348 0 97.5 0C43.6522 0 0 43.6522 0 97.5C0 151.348 43.6522 195 97.5 195Z" fill="#D9D9D9"/>
<path d="M38.2762 86C38.1049 85.7213 38.0377 85.4331 38.0743 85.1354C39.1635 76.1023 42.1312 67.4283 46.9774 59.1133C47.0263 59.0378 46.9958 59 46.8856 59H46.4451C46.4012 58.9999 46.358 59.0099 46.3207 59.0287C46.2832 59.0476 46.2531 59.0745 46.2339 59.1062C42.8563 64.8275 39.8488 71.052 37.2116 77.7795C36.6119 79.3197 36.2081 80.7772 36 82.1519" stroke="#98821C" stroke-width="1.8"/>
<path d="M163 109C163.513 109 163.845 109 164 109" stroke="#411E0B" stroke-width="1.8"/>
<path d="M76 157C73.791 154.957 71.4782 153.019 69.0617 151.187C65.7817 148.692 63.4756 146.761 62.1435 145.394C59.3723 142.547 56.9825 139.707 54.9744 136.876C54.1176 135.66 53.3578 134.295 52.695 132.781C52.0792 131.37 51.47 129.961 50.8677 128.554C49.9305 126.365 49.3079 122.846 49 118" stroke="#22A4C3" stroke-opacity="0.878" stroke-width="1.8"/>
<path d="M103.569 77.0883C103.846 79.8086 105.234 82.0693 107.735 83.8701C108.998 84.7801 110.498 85.9862 112.186 86.4268C116.385 87.5246 120.237 87.0455 123.744 84.9895C125.215 84.1229 125.867 83.0829 126.982 82.0211C130.269 78.8938 130.437 73.2532 129.519 69.4469C129.018 67.3669 127.646 65.2869 125.403 63.2068C123.067 61.0546 120.178 59.9857 116.736 60.0001C111.692 60.029 109.492 61.6034 106.688 64.1674C103.263 67.2875 102.612 71.787 103.184 75.9761C103.204 76.1446 103.26 76.3083 103.352 76.4671C103.471 76.6645 103.543 76.8716 103.569 77.0883Z" stroke="#933734" stroke-width="1.8"/>
<path d="M38.0256 85.7759C37.8397 85.4971 37.7668 85.2088 37.8066 84.9111C38.9879 75.8754 42.2067 67.199 47.4629 58.8816C47.516 58.806 47.4828 58.7682 47.3633 58.7682H46.8855C46.8379 58.7681 46.7911 58.7781 46.7505 58.7969C46.7099 58.8158 46.6773 58.8427 46.6565 58.8745C42.9931 64.5974 39.7312 70.8236 36.8708 77.5531C36.2205 79.0936 35.7824 80.5516 35.5567 81.9268C29.7563 70.5377 31.0505 59.8362 39.4392 49.8223C40.6536 48.3762 43.4245 46.0299 47.7515 42.7833C50.6584 40.6 53.761 38.7239 57.0595 37.1549C61.1145 35.222 65.0897 33.4948 68.9855 31.9731C72.1378 30.7397 75.3002 29.7236 78.4725 28.9249C81.8108 28.0837 85.212 27.174 88.6764 26.1958C90.1364 25.7847 90.3886 26.0209 89.4329 26.9047C87.8401 28.372 86.098 29.7614 84.8935 31.3918C80.3839 37.5164 76.9594 43.6339 74.5005 50.1483C72.0848 56.5612 69.9909 63.0403 68.2189 69.5854C67.2832 73.0731 65.3519 76.1566 63.4306 79.3819C61.2804 82.9971 57.4476 85.8752 52.3507 87.3071C46.4575 88.9658 42.8936 87.3213 38.0256 85.7759Z" fill="#B7D22B"/>
<path d="M123.403 98.259C122.619 98.8368 121.631 99.0598 120.439 98.9281C120.004 98.8792 119.698 99.0034 119.52 99.3026C117.701 102.343 117.385 105.553 116.812 108.806C116.627 109.874 116.104 110.78 115.241 111.524C115.056 111.685 114.824 111.811 114.561 111.893C114.299 111.975 114.015 112.011 113.73 111.997C113.446 111.984 113.17 111.921 112.922 111.815C112.675 111.708 112.464 111.562 112.306 111.385C111.565 110.555 111.08 109.651 111.1 108.63C111.159 105.523 111.298 101.704 109.885 98.7587C109.77 98.5234 109.536 98.3305 109.232 98.2223L103.945 96.2988C103.239 96.0419 102.443 95.9553 101.668 96.0513C100.894 96.1473 100.18 96.4211 99.6266 96.8343L93.2526 101.623C91.5989 102.857 90.3373 102.666 89.4676 101.05C89.4216 100.963 89.3754 100.874 89.3293 100.786C88.5848 99.2537 88.8418 97.8214 90.1002 96.4889C92.0864 94.3744 96.4643 89.5632 94.7645 86.9705C93.9806 85.766 93.3679 84.5052 92.9265 83.188C92.0667 80.6247 86.4733 80.4778 83.6667 80.5071C77.7176 80.5806 77.4409 74.8737 82.9256 74.3375C85.2446 74.1123 87.4682 73.6374 89.5962 72.9127C90.1081 72.7379 90.5458 72.4613 90.8613 72.1128C91.1767 71.7643 91.3578 71.3576 91.3848 70.937C91.4507 69.8499 91.6187 68.7457 91.8889 67.6245C92.5015 65.1272 89.5665 61.7707 87.5703 60.0667C86.167 58.867 85.1985 57.6551 84.6649 56.431C83.5976 53.9926 86.9774 51.6202 89.6455 53.7428C91.5759 55.2755 93.8027 56.5192 96.3259 57.474C96.5124 57.5434 96.7266 57.5601 96.9284 57.5209C97.1302 57.4817 97.3059 57.3894 97.4229 57.261L100.684 53.7502C100.915 53.5054 101 53.2361 100.941 52.9423C100.388 50.2247 99.6332 47.4705 98.678 44.6794C98.1641 43.1811 98.4737 41.8174 99.6069 40.5884C99.6907 40.4981 99.7989 40.4216 99.9246 40.3634C100.05 40.3054 100.191 40.2669 100.338 40.2506C103.085 39.9495 104.173 42.3732 104.914 43.9082C105.823 45.7959 107.394 47.2134 108.57 48.9688C108.671 49.1183 108.838 49.2377 109.043 49.3071C109.247 49.3766 109.478 49.392 109.697 49.3507L114.232 48.4546C114.608 48.3812 114.892 48.2221 115.082 47.9772C117.184 45.3233 118.439 42.4736 118.848 39.4279C118.957 38.6274 119.549 37.7827 119.974 37.0262C120.597 35.9098 122.642 35.6307 123.75 36.5561C124.777 37.4228 125.024 38.7963 124.915 39.9128C124.59 42.9535 124.026 46.9416 125.143 49.9016C125.235 50.1415 125.426 50.3276 125.716 50.4598L128.641 51.7451C128.791 51.8105 128.958 51.8474 129.129 51.8526C129.3 51.8576 129.469 51.8308 129.62 51.7744C132.051 50.8686 134.08 49.5833 135.707 47.9185C137.002 46.5964 140.214 43.8789 142.13 46.3026C143.109 47.5292 142.921 49.2405 141.834 50.423C139.864 52.5481 138.161 55.0992 136.725 58.0763C136.013 59.5452 137.821 61.2198 138.375 62.63C138.509 62.9614 138.801 63.2437 139.195 63.4233C141.844 64.6058 145.292 64.5543 148.178 63.8345C149.141 63.5946 150.053 63.624 150.915 63.9227C154.612 65.2081 152.872 69.042 149.73 69.9234C147.766 70.4816 145.873 71.1255 144.048 71.855C142.851 72.3398 142.358 73.0522 141.429 73.7206C141.174 73.8953 141.016 74.1361 140.984 74.3963L140.351 79.0896C140.312 79.3687 140.387 79.6282 140.579 79.8681C142.463 82.2625 144.828 84.062 147.674 85.2666C150.033 86.2654 150.903 87.7466 150.283 89.7101C150.257 89.7934 150.224 89.8765 150.184 89.9598C149.19 91.9135 147.543 92.2905 145.243 91.0909C142.812 89.8227 140.055 89.1422 136.972 89.0491C136.65 89.0378 136.33 89.0979 136.053 89.2221C135.775 89.3461 135.551 89.5286 135.41 89.7469C134.629 90.9734 133.137 92.222 133.137 93.6322C133.137 96.967 134.817 100.147 136.172 103.298C136.755 104.664 136.715 107.382 133.977 107.521C132.485 107.594 131.625 106.889 131.112 105.957C129.531 103.097 127.227 100.534 124.204 98.2665C124.098 98.1884 123.955 98.1433 123.806 98.1423C123.656 98.1404 123.512 98.1828 123.403 98.259ZM103.184 77.3048C103.461 80.0713 104.851 82.3703 107.355 84.2016C108.619 85.127 110.121 86.3536 111.811 86.8016C116.015 87.9179 119.872 87.4308 123.383 85.34C124.856 84.4586 125.509 83.4009 126.625 82.3213C129.916 79.141 130.084 73.4048 129.165 69.5341C128.664 67.4188 127.29 65.3035 125.044 63.1882C122.705 60.9995 119.813 59.9124 116.367 59.9271C111.317 59.9566 109.114 61.5577 106.307 64.1651C102.878 67.338 102.226 71.9138 102.799 76.1737C102.819 76.3452 102.875 76.5116 102.967 76.6732C103.085 76.8739 103.158 77.0844 103.184 77.3048Z" fill="#66554B"/>
<path d="M37.8063 86.517C37.6276 86.4977 37.5251 86.5652 37.4986 86.7192C35.4536 100.774 37.4589 114.388 43.5144 127.561C44.3814 129.449 45.384 131.295 46.5223 133.101C47.9618 135.376 49.0041 137.687 50.5825 139.897C53.1371 143.47 56.7704 147.233 61.4825 151.186C67.9417 156.603 75.4764 160.3 84.0865 162.279C92.5179 164.219 100.857 163.979 109.103 161.557C114.166 160.064 118.609 158.157 122.435 155.837C136.641 147.206 145.426 133.21 150.271 119.718C150.84 118.12 151.356 115.715 151.819 112.503C151.866 112.21 152.084 112.026 152.474 111.954C155.678 111.342 158.722 110.499 161.607 109.426C161.898 109.315 162.143 109.164 162.342 108.971C162.68 108.629 163.103 108.35 163.613 108.133C163.811 108.167 163.94 108.249 164 108.379C163.801 111.769 163.391 114.657 162.769 117.045C160.174 126.984 155.823 136.139 149.715 144.512C147.008 148.225 143.276 151.98 138.517 155.779C133.057 160.141 127.505 163.418 121.859 165.608C119.503 166.523 116.363 167.451 112.438 168.389C108.911 169.237 105.84 169.725 103.226 169.856C97.905 170.13 91.7899 170.144 86.6079 168.7C83.1434 167.732 79.1528 167.212 75.8768 165.811C66.7372 161.901 58.875 156.612 52.29 149.943C50.8472 148.485 49.6262 146.997 48.6269 145.48C47.2669 143.428 45.4701 141.558 44.1994 139.507C41.5919 135.323 39.5469 131.462 38.0644 127.922C36.9526 125.275 35.811 121.338 34.6396 116.114C32.5218 106.72 32.4557 97.2298 34.441 87.6437C34.6065 86.83 34.8116 85.9946 35.0565 85.1375C35.3344 84.1505 35.4305 83.3031 35.3444 82.5953C35.5694 81.1942 36.0063 79.7088 36.6548 78.1391C39.5072 71.2828 42.7599 64.9391 46.4132 59.1083C46.4339 59.0759 46.4665 59.0485 46.5069 59.0292C46.5473 59.0101 46.594 58.9999 46.6414 59H47.118C47.2371 59 47.2702 59.0385 47.2172 59.1155C41.9757 67.5897 38.766 76.4298 37.588 85.6359C37.5482 85.9392 37.621 86.233 37.8063 86.517Z" fill="#79320C"/>
<path d="M103.352 76.4672C103.26 76.3083 103.204 76.1445 103.184 75.976C102.612 71.7871 103.263 67.2876 106.688 64.1675C109.492 61.6035 111.692 60.0291 116.736 60.0001C120.178 59.9857 123.067 61.0547 125.403 63.2069C127.646 65.2869 129.018 67.367 129.519 69.447C130.437 73.2532 130.269 78.8939 126.982 82.0212C125.867 83.0828 125.215 84.1228 123.744 84.9895C120.237 87.0455 116.385 87.5246 112.186 86.4268C110.498 85.9863 108.998 84.7801 107.735 83.8701C105.234 82.0693 103.846 79.8087 103.569 77.0883C103.543 76.8716 103.471 76.6646 103.352 76.4672ZM116.529 83.7185C119.197 83.7185 121.755 82.6433 123.641 80.7293C125.528 78.8155 126.587 76.2199 126.587 73.5133C126.587 70.8067 125.528 68.2109 123.641 66.2971C121.755 64.3832 119.197 63.308 116.529 63.308C113.862 63.308 111.303 64.3832 109.417 66.2971C107.531 68.2109 106.471 70.8067 106.471 73.5133C106.471 76.2199 107.531 78.8155 109.417 80.7293C111.303 82.6433 113.862 83.7185 116.529 83.7185Z" fill="#BF181D"/>
<path d="M75.605 156.327C73.4282 154.344 71.1493 152.462 68.7682 150.682C65.5361 148.26 63.2638 146.385 61.9512 145.057C59.2204 142.293 56.8657 139.536 54.8869 136.786C54.0426 135.605 53.294 134.28 52.641 132.81C52.0341 131.44 51.4339 130.072 50.8402 128.706C49.9168 126.579 49.3034 123.163 49 118.457C52.0275 117.619 54.6791 116.932 56.9547 116.394C66.1694 114.215 74.9817 114.591 83.3916 117.522C86.3103 118.535 88.7442 120.063 91.287 121.626C92.3094 122.249 93.2756 122.915 94.1859 123.624C103.236 130.676 114.746 133.208 128.716 131.219C133.069 130.598 137.235 128.977 141.084 127.464C141.902 127.141 142.172 127.302 141.895 127.949C140.144 131.975 138.818 136.072 136.038 139.848C133.623 143.131 130.576 147.028 126.747 149.505C125.055 150.596 123.769 151.817 121.939 152.852C108.018 160.703 91.6729 162.423 75.605 156.327Z" fill="#00C0ED"/>
<path d="M49.771 118C50.0701 122.846 50.6748 126.365 51.5853 128.554C52.1706 129.961 52.7622 131.37 53.3606 132.781C54.0043 134.295 54.7424 135.66 55.5747 136.876C57.5256 139.707 59.847 142.547 62.5392 145.394C63.8332 146.761 66.0734 148.692 69.2599 151.187C71.6074 153.019 73.8541 154.957 76 157C69.6989 154.266 64.2755 150.572 59.73 145.916C54.9765 141.055 51.7869 135.973 50.1611 130.671C49.0394 127.033 48.9127 123.27 48.025 119.646C47.96 119.401 48.0218 119.173 48.2104 118.962C48.672 118.448 49.1923 118.127 49.771 118Z" fill="#507E8C" fill-opacity="0.753"/>
<path d="M136.145 121.405C137.473 120.891 138.733 120.166 139.923 119.231C140.423 118.844 140.709 118.944 140.781 119.528C140.949 120.801 141.452 123.081 139.972 123.836C139.637 124.005 139.314 124.199 139.005 124.414C134.889 127.275 130.091 129.076 124.614 129.819C115.46 131.064 103.918 125.669 97.269 120.555C96.8744 120.251 96.9139 120.201 97.3875 120.406C99.2025 121.207 101.067 122.035 102.981 122.888C105.171 123.865 107.104 124.535 108.781 124.898C114.614 126.161 120.668 126.152 126.942 124.871C130.324 124.186 133.027 122.608 136.145 121.405Z" fill="#00C0ED"/>
</g>
<path d="M154.466 55.1877L153.06 59.3867C153.017 59.5157 152.93 59.6335 152.807 59.7274C152.684 59.8213 152.53 59.8878 152.361 59.9199C152.193 59.9519 152.016 59.9483 151.85 59.9094C151.684 59.8705 151.535 59.7977 151.418 59.6989C148.95 57.6384 153.6 53.9858 148.186 51.9877C147.847 51.8628 147.502 51.8576 147.156 51.9721C145.926 52.3884 144.825 53.005 143.852 53.8219C143.597 54.0349 143.243 54.1632 142.866 54.1792C142.489 54.1953 142.118 54.0978 141.834 53.9077C141.711 53.8245 141.627 53.7204 141.579 53.5955C141.32 52.8671 141.449 52.1984 141.967 51.5897C142.626 50.8248 143.326 50.0729 144.067 49.3341C144.719 48.6889 144.944 47.9292 144.74 47.055C144.216 44.8593 142.776 43.751 140.417 43.7302C139.2 43.7197 138.408 43.2697 138.04 42.3799C138.014 42.3071 138 42.2316 138 42.1536C137.987 41.3054 138.53 40.8189 139.632 40.6941L143.058 40.3194C143.478 40.2726 143.758 40.0931 143.894 39.7809C145.148 37.0024 143.904 35.4804 142.098 33.295C141.596 32.6863 141.49 32.1035 141.783 31.5467C141.864 31.3911 141.993 31.2538 142.162 31.1476C142.331 31.0414 142.533 30.9697 142.75 30.9394C142.965 30.909 143.188 30.9208 143.397 30.9738C143.606 31.0268 143.795 31.1192 143.944 31.2423L146.606 33.4745C146.878 33.7035 147.177 33.7321 147.502 33.5604C150.266 32.1321 149.164 29.416 148.747 27.3477C148.604 26.6297 148.95 26.1614 149.787 25.9428C149.961 25.897 150.153 25.9048 150.32 25.9644C150.487 26.0241 150.617 26.131 150.683 26.2628L152.509 29.9155C152.665 30.2173 152.951 30.389 153.366 30.4306C154.783 30.5867 156.129 30.2589 156.659 29.096C157.243 27.8056 157.974 26.51 158.851 25.2092C158.885 25.1603 158.931 25.1175 158.988 25.0834C159.045 25.0493 159.111 25.0248 159.18 25.0115C159.25 24.9982 159.321 24.9965 159.391 25.0063C159.461 25.0162 159.527 25.0374 159.585 25.0687C160.564 25.5994 160.941 26.2602 160.717 27.0511C160.411 28.175 160.21 29.377 160.115 30.657C160.034 31.7028 161.094 32.8033 162.522 32.5926C163.826 32.3975 165.101 31.0784 166.13 30.4384C166.313 30.3277 166.528 30.2548 166.758 30.2269C166.987 30.1989 167.222 30.2168 167.439 30.2789C167.657 30.3409 167.85 30.445 168 30.581C168.149 30.717 168.25 30.8803 168.292 31.055C168.517 32.0124 168.122 32.8554 167.109 33.5838C164.697 35.3009 164.313 37.0258 165.957 38.7584C166.175 38.9874 166.467 39.1123 166.834 39.1331L170.586 39.3438C171.348 39.3906 171.783 39.7002 171.892 40.2726L171.932 40.5302C172.123 41.498 171.596 42.0963 170.352 42.3253L167.303 42.8872C166.889 42.9653 166.586 43.1526 166.396 43.4492C164.935 45.723 165.559 47.591 168.272 49.0531C169.305 49.6098 169.75 50.3695 169.607 51.3321C169.58 51.509 169.496 51.6651 169.353 51.8004C168.7 52.3988 167.983 52.4508 167.201 51.9565C166.413 51.4622 165.546 51.0693 164.601 50.778C164.292 50.6817 163.955 50.6465 163.623 50.6755C163.29 50.7046 162.973 50.7969 162.699 50.9442C162.425 51.0914 162.202 51.289 162.052 51.5189C161.901 51.7488 161.828 52.0039 161.838 52.2609C161.92 54.1549 162.226 55.9786 162.756 57.7321C162.806 57.9032 162.786 58.0821 162.699 58.2441C162.611 58.4062 162.46 58.5436 162.266 58.6375C161.729 58.8976 161.203 58.9106 160.686 58.6765C160.367 58.5308 160.132 58.3227 159.983 58.0521C159.378 56.9646 158.766 55.9214 158.147 54.9224C157.974 54.6434 157.693 54.412 157.342 54.2594C156.991 54.1069 156.587 54.0406 156.186 54.0696C155.784 54.0985 155.404 54.2213 155.096 54.4214C154.789 54.6214 154.568 54.8889 154.466 55.1877ZM154.881 48.7721C155.679 48.7732 156.472 48.6065 157.211 48.2815C157.949 47.9566 158.622 47.4797 159.189 46.8782C159.755 46.2767 160.205 45.5623 160.513 44.7758C160.82 43.9893 160.98 43.1461 160.982 42.2944C160.984 41.4426 160.829 40.599 160.525 39.8117C160.221 39.0244 159.773 38.3088 159.21 37.7058C158.646 37.1028 157.976 36.6241 157.238 36.2972C156.501 35.9703 155.709 35.8015 154.909 35.8004C154.111 35.7993 153.318 35.966 152.58 36.291C151.84 36.616 151.168 37.0928 150.601 37.6943C150.034 38.2958 149.585 39.0102 149.277 39.7967C148.969 40.5832 148.81 41.4264 148.808 42.2781C148.806 43.1299 148.961 43.9735 149.265 44.7608C149.569 45.5481 150.017 46.2637 150.58 46.8667C151.144 47.4697 151.814 47.9484 152.552 48.2753C153.29 48.6022 154.081 48.771 154.881 48.7721Z" fill="#BF181D"/>
<defs>
<clipPath id="clip0_0_1">
<rect width="195" height="195" fill="white"/>
</clipPath>
</defs>
</svg>
